<?xml version="1.0" encoding="iso-8859-1"?>
<!-- Uploaded to: SVG Repo, www.svgrepo.com, Generator: SVG Repo Mixer Tools -->
<svg version="1.1" id="Layer_1" xmlns="http://www.w3.org/2000/svg" xmlns:xlink="http://www.w3.org/1999/xlink" 
	 viewBox="0 0 512 512" xml:space="preserve">
<circle style="fill:#38C6B4;" cx="256" cy="256" r="197.792"/>
<g>
	<path style="fill:#222077;" d="M357.888,256.944c-32.368,0-58.592,26.368-58.592,58.896c0,23.712,13.968,44.096,34.048,53.424
		c6.352,21.968,19.216,47.728,21.104,51.44l3.44,6.8l3.456-6.8c1.872-3.728,14.736-29.472,21.088-51.44
		c20.096-9.344,34.064-29.728,34.064-53.44C416.496,283.312,390.256,256.944,357.888,256.944z M357.888,335.408
		c-10.752,0-19.472-8.768-19.472-19.568s8.72-19.568,19.472-19.568s19.472,8.768,19.472,19.568S368.656,335.408,357.888,335.408z"/>
	<rect x="227.104" y="20.288" style="fill:#222077;" width="32" height="471.136"/>
	<rect x="241.76" y="201.904" style="fill:#222077;" width="239.488" height="32"/>
	<rect x="33.712" y="307.92" style="fill:#222077;" width="205.472" height="32"/>
	<rect x="89.696" y="77.872" style="fill:#222077;" width="32" height="246.048"/>
	<path style="fill:#222077;" d="M256,32c123.52,0,224,100.48,224,224S379.52,480,256,480S32,379.52,32,256S132.48,32,256,32 M256,0
		C114.608,0,0,114.608,0,256s114.608,256,256,256s256-114.608,256-256S397.392,0,256,0L256,0z"/>
</g>
</svg>